G04 ---------------------------- Layer name :TOP SOLDER LAYER*
G04 easyEDA 0.1*
G04 Scale: 100 percent, Rotated: No, Reflected: No *
G04 Dimensions in inches *
G04 leading zeros omitted , absolute positions ,2 integer and 4 * 
%FSLAX24Y24*%
%MOIN*%
G90*
G70D02*

%ADD12R,0.088900X0.050700*%
%ADD13R,0.079200X0.089400*%
%ADD14C,0.173000*%
%ADD16C,0.089000*%
%ADD18C,0.090000*%

%LPD*%
%LNVIA PAD TRACK COPPERAREA*%
G54D12*
G01X5937Y55120D03*
G01X1937Y55120D03*
G01X6881Y47954D03*
G01X2881Y47954D03*
G01X8693Y40474D03*
G01X4693Y40474D03*
G01X6881Y32954D03*
G01X2881Y32954D03*
G01X13346Y55198D03*
G01X9345Y55198D03*
G01X20827Y55199D03*
G01X16827Y55199D03*
G01X28377Y55120D03*
G01X24377Y55120D03*
G01X36054Y55120D03*
G01X32054Y55120D03*
G01X43536Y55120D03*
G01X39536Y55120D03*
G01X51016Y55120D03*
G01X47016Y55120D03*
G01X58496Y55120D03*
G01X54496Y55120D03*
G01X65976Y55120D03*
G01X61976Y55120D03*
G01X73457Y55120D03*
G01X69457Y55120D03*
G01X80936Y55120D03*
G01X76936Y55120D03*
G01X88418Y55120D03*
G01X84418Y55120D03*
G01X95898Y55120D03*
G01X91898Y55120D03*
G01X103378Y55120D03*
G01X99378Y55120D03*
G01X15425Y47954D03*
G01X11425Y47954D03*
G01X22865Y47954D03*
G01X18865Y47954D03*
G01X30347Y47954D03*
G01X26347Y47954D03*
G01X37827Y47954D03*
G01X33827Y47954D03*
G01X45307Y47954D03*
G01X41307Y47954D03*
G01X52788Y47954D03*
G01X48788Y47954D03*
G01X60307Y47954D03*
G01X56307Y47954D03*
G01X67786Y47954D03*
G01X63786Y47954D03*
G01X75425Y47954D03*
G01X71425Y47954D03*
G01X82748Y47954D03*
G01X78748Y47954D03*
G01X90385Y47954D03*
G01X86385Y47954D03*
G01X19087Y40474D03*
G01X15087Y40474D03*
G01X26646Y40474D03*
G01X22646Y40474D03*
G01X34087Y40474D03*
G01X30087Y40474D03*
G01X41566Y40474D03*
G01X37566Y40474D03*
G01X49086Y40474D03*
G01X45086Y40474D03*
G01X56489Y40474D03*
G01X52489Y40474D03*
G01X64007Y40474D03*
G01X60008Y40474D03*
G01X71488Y40474D03*
G01X67488Y40474D03*
G01X79166Y40474D03*
G01X75166Y40474D03*
G01X87433Y40474D03*
G01X83433Y40474D03*
G01X95858Y40474D03*
G01X91858Y40474D03*
G01X103417Y40474D03*
G01X99417Y40474D03*
G01X16173Y32954D03*
G01X12173Y32954D03*
G01X25622Y32954D03*
G01X21622Y32954D03*
G01X53811Y32954D03*
G01X49811Y32954D03*
G01X80936Y32954D03*
G01X76936Y32954D03*
G01X88417Y32954D03*
G01X84417Y32954D03*
G01X95898Y32954D03*
G01X91898Y32954D03*
G01X103378Y32954D03*
G01X99378Y32954D03*
G01X100660Y47954D03*
G01X96660Y47954D03*
G54D13*
G01X45590Y38978D03*
G01X44574Y38978D03*
G01X43558Y38978D03*
G01X42541Y38978D03*
G01X41526Y38978D03*
G01X40510Y38978D03*
G01X39494Y38978D03*
G01X38478Y38978D03*
G01X37462Y38978D03*
G01X36446Y38978D03*
G01X35429Y38978D03*
G01X34414Y38978D03*
G01X34414Y37962D03*
G01X34414Y36946D03*
G01X34414Y35929D03*
G01X34414Y34914D03*
G01X34414Y33898D03*
G01X34414Y32882D03*
G01X35429Y32882D03*
G01X36446Y32882D03*
G01X37462Y32882D03*
G01X38478Y32882D03*
G01X39494Y32882D03*
G01X40510Y32882D03*
G01X41526Y32882D03*
G01X42541Y32882D03*
G01X43558Y32882D03*
G01X44574Y32882D03*
G01X45590Y32882D03*
G01X41526Y33898D03*
G01X41526Y37962D03*
G54D14*
G01X3751Y58848D03*
G54D16*
G01X2251Y59848D03*
G01X4751Y60848D03*
G54D18*
G01X1751Y58848D03*
G01X5751Y58848D03*
G54D14*
G01X11251Y58848D03*
G54D16*
G01X9751Y59848D03*
G01X12251Y60848D03*
G54D18*
G01X9251Y58848D03*
G01X13251Y58848D03*
G54D14*
G01X18752Y58848D03*
G54D16*
G01X17252Y59848D03*
G01X19752Y60848D03*
G54D18*
G01X16752Y58848D03*
G01X20752Y58848D03*
G54D14*
G01X26252Y58848D03*
G54D16*
G01X24752Y59848D03*
G01X27252Y60848D03*
G54D18*
G01X24252Y58848D03*
G01X28252Y58848D03*
G54D14*
G01X33752Y58848D03*
G54D16*
G01X32252Y59848D03*
G01X34752Y60848D03*
G54D18*
G01X31752Y58848D03*
G01X35752Y58848D03*
G54D14*
G01X41252Y58848D03*
G54D16*
G01X39752Y59848D03*
G01X42252Y60848D03*
G54D18*
G01X39252Y58848D03*
G01X43252Y58848D03*
G54D14*
G01X48752Y58848D03*
G54D16*
G01X47252Y59848D03*
G01X49752Y60848D03*
G54D18*
G01X46752Y58848D03*
G01X50752Y58848D03*
G54D14*
G01X56252Y58848D03*
G54D16*
G01X54752Y59848D03*
G01X57252Y60848D03*
G54D18*
G01X54252Y58848D03*
G01X58252Y58848D03*
G54D14*
G01X63752Y58848D03*
G54D16*
G01X62252Y59848D03*
G01X64752Y60848D03*
G54D18*
G01X61752Y58848D03*
G01X65752Y58848D03*
G54D14*
G01X71252Y58848D03*
G54D16*
G01X69752Y59848D03*
G01X72252Y60848D03*
G54D18*
G01X69252Y58848D03*
G01X73252Y58848D03*
G54D14*
G01X78752Y58848D03*
G54D16*
G01X77252Y59848D03*
G01X79752Y60848D03*
G54D18*
G01X76752Y58848D03*
G01X80752Y58848D03*
G54D14*
G01X86252Y58848D03*
G54D16*
G01X84752Y59848D03*
G01X87252Y60848D03*
G54D18*
G01X84252Y58848D03*
G01X88252Y58848D03*
G54D14*
G01X93752Y58848D03*
G54D16*
G01X92252Y59848D03*
G01X94752Y60848D03*
G54D18*
G01X91752Y58848D03*
G01X95752Y58848D03*
G54D14*
G01X101252Y58848D03*
G54D16*
G01X99752Y59848D03*
G01X102252Y60848D03*
G54D18*
G01X99252Y58848D03*
G01X103252Y58848D03*
G54D14*
G01X4688Y51348D03*
G54D16*
G01X3188Y52348D03*
G01X5688Y53348D03*
G54D18*
G01X2688Y51348D03*
G01X6688Y51348D03*
G54D14*
G01X6563Y43848D03*
G54D16*
G01X5063Y44848D03*
G01X7563Y45848D03*
G54D18*
G01X4563Y43848D03*
G01X8563Y43848D03*
G54D14*
G01X4688Y36348D03*
G54D16*
G01X3188Y37348D03*
G01X5688Y38348D03*
G54D18*
G01X2688Y36348D03*
G01X6688Y36348D03*
G54D14*
G01X13126Y51348D03*
G54D16*
G01X11626Y52348D03*
G01X14126Y53348D03*
G54D18*
G01X11126Y51348D03*
G01X15126Y51348D03*
G54D14*
G01X20626Y51348D03*
G54D16*
G01X19126Y52348D03*
G01X21626Y53348D03*
G54D18*
G01X18626Y51348D03*
G01X22626Y51348D03*
G54D14*
G01X28126Y51348D03*
G54D16*
G01X26626Y52348D03*
G01X29126Y53348D03*
G54D18*
G01X26126Y51348D03*
G01X30126Y51348D03*
G54D14*
G01X35626Y51348D03*
G54D16*
G01X34126Y52348D03*
G01X36626Y53348D03*
G54D18*
G01X33626Y51348D03*
G01X37626Y51348D03*
G54D14*
G01X43126Y51348D03*
G54D16*
G01X41626Y52348D03*
G01X44126Y53348D03*
G54D18*
G01X41126Y51348D03*
G01X45126Y51348D03*
G54D14*
G01X50626Y51348D03*
G54D16*
G01X49126Y52348D03*
G01X51626Y53348D03*
G54D18*
G01X48626Y51348D03*
G01X52626Y51348D03*
G54D14*
G01X58126Y51348D03*
G54D16*
G01X56626Y52348D03*
G01X59126Y53348D03*
G54D18*
G01X56126Y51348D03*
G01X60126Y51348D03*
G54D14*
G01X65626Y51348D03*
G54D16*
G01X64126Y52348D03*
G01X66626Y53348D03*
G54D18*
G01X63626Y51348D03*
G01X67626Y51348D03*
G54D14*
G01X73126Y51348D03*
G54D16*
G01X71626Y52348D03*
G01X74126Y53348D03*
G54D18*
G01X71126Y51348D03*
G01X75126Y51348D03*
G54D14*
G01X80626Y51348D03*
G54D16*
G01X79126Y52348D03*
G01X81626Y53348D03*
G54D18*
G01X78626Y51348D03*
G01X82626Y51348D03*
G54D14*
G01X88126Y51348D03*
G54D16*
G01X86626Y52348D03*
G01X89126Y53348D03*
G54D18*
G01X86126Y51348D03*
G01X90126Y51348D03*
G54D14*
G01X98436Y51348D03*
G54D16*
G01X96936Y52348D03*
G01X99436Y53348D03*
G54D18*
G01X96436Y51348D03*
G01X100436Y51348D03*
G54D14*
G01X16874Y43848D03*
G54D16*
G01X15374Y44848D03*
G01X17874Y45848D03*
G54D18*
G01X14874Y43848D03*
G01X18874Y43848D03*
G54D14*
G01X24374Y43848D03*
G54D16*
G01X22874Y44848D03*
G01X25374Y45848D03*
G54D18*
G01X22374Y43848D03*
G01X26374Y43848D03*
G54D14*
G01X31874Y43848D03*
G54D16*
G01X30374Y44848D03*
G01X32874Y45848D03*
G54D18*
G01X29874Y43848D03*
G01X33874Y43848D03*
G54D14*
G01X39374Y43848D03*
G54D16*
G01X37874Y44848D03*
G01X40374Y45848D03*
G54D18*
G01X37374Y43848D03*
G01X41374Y43848D03*
G54D14*
G01X46874Y43848D03*
G54D16*
G01X45374Y44848D03*
G01X47874Y45848D03*
G54D18*
G01X44874Y43848D03*
G01X48874Y43848D03*
G54D14*
G01X54374Y43848D03*
G54D16*
G01X52874Y44848D03*
G01X55374Y45848D03*
G54D18*
G01X52374Y43848D03*
G01X56374Y43848D03*
G54D14*
G01X61874Y43848D03*
G54D16*
G01X60374Y44848D03*
G01X62874Y45848D03*
G54D18*
G01X59874Y43848D03*
G01X63874Y43848D03*
G54D14*
G01X69374Y43848D03*
G54D16*
G01X67874Y44848D03*
G01X70374Y45848D03*
G54D18*
G01X67374Y43848D03*
G01X71374Y43848D03*
G54D14*
G01X76874Y43848D03*
G54D16*
G01X75374Y44848D03*
G01X77874Y45848D03*
G54D18*
G01X74874Y43848D03*
G01X78874Y43848D03*
G54D14*
G01X85310Y43848D03*
G54D16*
G01X83810Y44848D03*
G01X86310Y45848D03*
G54D18*
G01X83310Y43848D03*
G01X87310Y43848D03*
G54D14*
G01X93752Y43848D03*
G54D16*
G01X92252Y44848D03*
G01X94752Y45848D03*
G54D18*
G01X91752Y43848D03*
G01X95752Y43848D03*
G54D14*
G01X101252Y43848D03*
G54D16*
G01X99752Y44848D03*
G01X102252Y45848D03*
G54D18*
G01X99252Y43848D03*
G01X103252Y43848D03*
G54D14*
G01X14063Y36348D03*
G54D16*
G01X12563Y37348D03*
G01X15063Y38348D03*
G54D18*
G01X12063Y36348D03*
G01X16063Y36348D03*
G54D14*
G01X23437Y36348D03*
G54D16*
G01X21937Y37348D03*
G01X24437Y38348D03*
G54D18*
G01X21437Y36348D03*
G01X25437Y36348D03*
G54D14*
G01X51563Y36348D03*
G54D16*
G01X50063Y37348D03*
G01X52563Y38348D03*
G54D18*
G01X49563Y36348D03*
G01X53563Y36348D03*
G54D14*
G01X78752Y36348D03*
G54D16*
G01X77252Y37348D03*
G01X79752Y38348D03*
G54D18*
G01X76752Y36348D03*
G01X80752Y36348D03*
G54D14*
G01X86252Y36348D03*
G54D16*
G01X84752Y37348D03*
G01X87252Y38348D03*
G54D18*
G01X84252Y36348D03*
G01X88252Y36348D03*
G54D14*
G01X93752Y36348D03*
G54D16*
G01X92252Y37348D03*
G01X94752Y38348D03*
G54D18*
G01X91752Y36348D03*
G01X95752Y36348D03*
G54D14*
G01X101252Y36348D03*
G54D16*
G01X99752Y37348D03*
G01X102252Y38348D03*
G54D18*
G01X99252Y36348D03*
G01X103252Y36348D03*

M00*
M02*