G04 ---------------------------- Layer name :TOP LAYER*
G04 easyEDA 0.1*
G04 Scale: 100 percent, Rotated: No, Reflected: No *
G04 Dimensions in inches *
G04 leading zeros omitted , absolute positions ,2 integer and 4 * 
%FSLAX24Y24*%
%MOIN*%
G90*
G70D02*

%ADD10C,0.010000*%
%ADD11C,0.007874*%
%ADD12C,0.023600*%
%ADD13R,0.085900X0.047700*%
%ADD14R,0.076200X0.086400*%
%ADD15C,0.170000*%
%ADD17C,0.086000*%
%ADD19C,0.087000*%

%LPD*%
%LNVIA PAD TRACK COPPERAREA*%
G54D11*
G01X34126Y52348D02*
G01X33015Y52348D01*
G01X32834Y52166D01*
G01X32834Y48151D01*
G01X33031Y47954D01*
G01X33826Y47954D01*
G01X33827Y47954D01*
G01X26626Y52348D02*
G01X25574Y52348D01*
G01X25393Y52166D01*
G01X25393Y48111D01*
G01X25551Y47954D01*
G01X26346Y47954D01*
G01X26347Y47954D01*
G01X19126Y52348D02*
G01X18054Y52348D01*
G01X17834Y52127D01*
G01X17834Y48111D01*
G01X17992Y47954D01*
G01X18865Y47954D01*
G01X18865Y47954D01*
G01X48898Y41655D02*
G01X48306Y41655D01*
G01X47834Y41182D01*
G01X47834Y39608D01*
G01X47835Y39608D01*
G01X48622Y41379D02*
G01X48267Y41379D01*
G01X48110Y41222D01*
G01X48110Y39372D01*
G01X48110Y39372D01*
G01X11626Y52348D02*
G01X10574Y52348D01*
G01X10354Y52127D01*
G01X10354Y48072D01*
G01X10472Y47954D01*
G01X11424Y47954D01*
G01X11425Y47954D01*
G01X3188Y52348D02*
G01X2110Y52348D01*
G01X1929Y52166D01*
G01X1929Y48072D01*
G01X2047Y47954D01*
G01X2881Y47954D01*
G01X2881Y47954D01*
G01X52874Y44848D02*
G01X51893Y44848D01*
G01X51535Y44489D01*
G01X51535Y40631D01*
G01X51692Y40474D01*
G01X52488Y40474D01*
G01X52489Y40474D01*
G01X2251Y59848D02*
G01X1185Y59848D01*
G01X984Y59647D01*
G01X984Y55316D01*
G01X1181Y55119D01*
G01X1936Y55119D01*
G01X1937Y55120D01*
G01X6881Y47954D02*
G01X8070Y47950D01*
G01X8693Y40474D02*
G01X10039Y40471D01*
G01X9751Y59848D02*
G01X8665Y59848D01*
G01X8464Y59647D01*
G01X8464Y55316D01*
G01X8661Y55119D01*
G01X9267Y55119D01*
G01X9345Y55198D01*
G01X5937Y55120D02*
G01X7873Y55120D01*
G01X8070Y54922D01*
G01X8070Y47639D01*
G01X8267Y47442D01*
G01X9842Y47442D01*
G01X10039Y47245D01*
G01X10039Y39568D01*
G01X9842Y39371D01*
G01X8464Y39371D01*
G01X8070Y38978D01*
G01X8070Y35041D01*
G01X17252Y59848D02*
G01X16145Y59848D01*
G01X15944Y59647D01*
G01X15944Y55316D01*
G01X16141Y55119D01*
G01X16747Y55119D01*
G01X16827Y55199D01*
G01X24752Y59848D02*
G01X23626Y59848D01*
G01X23425Y59647D01*
G01X23425Y55316D01*
G01X23622Y55119D01*
G01X24377Y55119D01*
G01X24377Y55120D01*
G01X32252Y59848D02*
G01X31303Y59848D01*
G01X31102Y59647D01*
G01X31102Y55316D01*
G01X31299Y55119D01*
G01X32054Y55119D01*
G01X32054Y55120D01*
G01X47252Y59848D02*
G01X46263Y59848D01*
G01X46062Y59647D01*
G01X46062Y55316D01*
G01X46259Y55119D01*
G01X47015Y55119D01*
G01X47016Y55120D01*
G01X54752Y59848D02*
G01X53744Y59848D01*
G01X53543Y59647D01*
G01X53543Y55316D01*
G01X53740Y55119D01*
G01X54495Y55119D01*
G01X54496Y55120D01*
G01X62252Y59848D02*
G01X61224Y59848D01*
G01X61023Y59647D01*
G01X61023Y55316D01*
G01X61220Y55119D01*
G01X61975Y55119D01*
G01X61976Y55120D01*
G01X69752Y59848D02*
G01X68704Y59848D01*
G01X68503Y59647D01*
G01X68503Y55316D01*
G01X68700Y55119D01*
G01X69456Y55119D01*
G01X69457Y55120D01*
G01X77252Y59848D02*
G01X76184Y59848D01*
G01X75984Y59647D01*
G01X75984Y55316D01*
G01X76180Y55119D01*
G01X76936Y55119D01*
G01X76936Y55120D01*
G01X84752Y59848D02*
G01X83665Y59848D01*
G01X83464Y59647D01*
G01X83464Y55316D01*
G01X83661Y55119D01*
G01X84417Y55119D01*
G01X84418Y55120D01*
G01X92252Y59848D02*
G01X91145Y59848D01*
G01X90944Y59647D01*
G01X90944Y55316D01*
G01X91141Y55119D01*
G01X91897Y55119D01*
G01X91898Y55120D01*
G54D10*
G01X99752Y59848D02*
G01X98625Y59848D01*
G01X98425Y59647D01*
G01X98425Y55316D01*
G01X98621Y55119D01*
G01X99377Y55119D01*
G01X99378Y55120D01*
G54D11*
G01X13346Y55198D02*
G01X15276Y55198D01*
G01X16535Y53938D01*
G01X16535Y48230D01*
G01X18110Y46655D01*
G01X19881Y46655D01*
G01X20275Y46261D01*
G01X20275Y39765D01*
G01X19881Y39371D01*
G01X17913Y39371D01*
G01X17519Y38978D01*
G01X17520Y34726D01*
G01X19086Y40474D02*
G01X20275Y40484D01*
G01X15425Y47954D02*
G01X16810Y47950D01*
G01X26646Y40474D02*
G01X27755Y40471D01*
G01X28377Y55120D02*
G01X30511Y55120D01*
G01X31496Y54135D01*
G01X31496Y47796D01*
G01X32637Y46655D01*
G01X34842Y46655D01*
G01X35236Y46261D01*
G01X35236Y40985D01*
G01X30347Y47954D02*
G01X31496Y47950D01*
G01X36054Y55120D02*
G01X37794Y55120D01*
G01X38976Y53938D01*
G01X38976Y48230D01*
G01X40551Y46655D01*
G01X42322Y46655D01*
G01X42716Y46261D01*
G01X42716Y40907D01*
G01X37827Y47954D02*
G01X39260Y47950D01*
G01X43536Y55120D02*
G01X45078Y55120D01*
G01X46456Y53741D01*
G01X46456Y48230D01*
G01X48031Y46655D01*
G01X49803Y46655D01*
G01X50196Y46261D01*
G01X50196Y40946D01*
G01X50196Y40946D02*
G01X50196Y40749D01*
G01X51771Y39174D01*
G01X54330Y39174D01*
G01X54921Y38584D01*
G01X54921Y34962D01*
G54D10*
G01X45307Y47954D02*
G01X46740Y47950D01*
G54D11*
G01X51016Y55120D02*
G01X52755Y55120D01*
G01X53936Y53938D01*
G01X53936Y48230D01*
G01X55511Y46655D01*
G01X57283Y46655D01*
G01X57677Y46261D01*
G01X57677Y40946D01*
G01X52788Y47954D02*
G01X54210Y47960D01*
G01X58496Y55120D02*
G01X60235Y55120D01*
G01X61417Y53938D01*
G01X61417Y48230D01*
G01X62992Y46655D01*
G01X64763Y46655D01*
G01X65157Y46261D01*
G01X65157Y40946D01*
G01X60307Y47954D02*
G01X61690Y47960D01*
G01X65976Y55120D02*
G01X67716Y55120D01*
G01X68897Y53938D01*
G01X68897Y48230D01*
G01X70472Y46655D01*
G01X72243Y46655D01*
G01X72637Y46261D01*
G01X72637Y40946D01*
G01X67786Y47954D02*
G01X69170Y47960D01*
G01X73457Y55120D02*
G01X75196Y55120D01*
G01X76377Y53938D01*
G01X76377Y48230D01*
G01X77952Y46655D01*
G01X79724Y46655D01*
G01X80118Y46261D01*
G01X80118Y40749D01*
G01X81102Y39765D01*
G01X81102Y39765D02*
G01X82085Y38781D01*
G01X82086Y33466D01*
G01X79166Y40474D02*
G01X80383Y40479D01*
G01X75425Y47954D02*
G01X76650Y47960D01*
G01X80936Y55120D02*
G01X82479Y55120D01*
G01X83858Y53741D01*
G01X83858Y48230D01*
G01X85432Y46655D01*
G01X88188Y46655D01*
G01X88582Y46261D01*
G01X88582Y40749D01*
G01X89566Y39765D01*
G01X89566Y33466D01*
G01X87433Y40474D02*
G01X88859Y40479D01*
G01X82748Y47954D02*
G01X84133Y47954D01*
G01X88418Y55120D02*
G01X89960Y55120D01*
G01X91535Y53544D01*
G01X91535Y48230D01*
G01X93110Y46655D01*
G01X96850Y46655D01*
G01X97047Y46458D01*
G01X97047Y33466D01*
G01X95858Y40474D02*
G01X97050Y40479D01*
G01X90385Y47954D02*
G01X91820Y47950D01*
G01X95898Y55120D02*
G01X97440Y55120D01*
G01X98425Y54135D01*
G01X101692Y54135D01*
G01X101968Y53859D01*
G01X101968Y48229D01*
G01X103543Y46655D01*
G01X104330Y46655D01*
G01X104724Y46261D01*
G01X104724Y41576D01*
G01X104724Y33466D02*
G01X104724Y40158D01*
G01X104724Y41576D01*
G54D10*
G01X100660Y47954D02*
G01X102240Y47960D01*
G54D11*
G01X20827Y55199D02*
G01X22164Y55199D01*
G01X24015Y53348D01*
G01X24015Y47836D01*
G01X25196Y46655D01*
G01X27322Y46655D01*
G01X27755Y46222D01*
G01X27755Y41379D01*
G01X27755Y41379D02*
G01X27755Y39568D01*
G01X26968Y38781D01*
G01X26968Y34450D01*
G01X22865Y47954D02*
G01X24015Y47960D01*
G01X103378Y55120D02*
G01X103378Y54364D01*
G01X103149Y54135D01*
G01X102558Y54135D01*
G01X102361Y53938D01*
G01X102361Y48426D01*
G01X103740Y47048D01*
G01X104527Y47048D01*
G01X105117Y46458D01*
G01X105118Y33820D01*
G01X37835Y57285D02*
G01X37835Y55473D01*
G01X39685Y53623D01*
G01X39685Y47915D01*
G01X40551Y47048D01*
G01X42283Y47048D01*
G01X43385Y45946D01*
G01X43385Y40355D01*
G01X44094Y39647D01*
G01X45354Y39647D01*
G01X27755Y41458D02*
G01X28622Y41458D01*
G01X46457Y46655D02*
G01X46457Y46339D01*
G01X48267Y44529D01*
G01X48267Y43663D01*
G01X44094Y50002D02*
G01X44094Y46852D01*
G01X44881Y46064D01*
G01X46495Y46064D01*
G01X48110Y44450D01*
G01X48110Y43663D01*
G01X39752Y59848D02*
G01X38980Y59848D01*
G01X38582Y59450D01*
G01X38582Y56073D01*
G01X39536Y55120D01*
G01X48110Y36183D02*
G01X38700Y36183D01*
G01X37480Y37403D01*
G01X37480Y38960D01*
G01X37463Y38978D01*
G01X48109Y35828D02*
G01X46614Y35828D01*
G01X46417Y36025D01*
G01X38622Y36025D01*
G01X36496Y38151D01*
G01X36496Y38929D01*
G01X36447Y38978D01*
G01X48110Y35474D02*
G01X46732Y35474D01*
G01X46338Y35867D01*
G01X38543Y35867D01*
G01X37007Y37403D01*
G01X36220Y37403D01*
G01X35433Y38190D01*
G01X35433Y38976D01*
G01X35430Y38978D01*
G01X47008Y33584D02*
G01X46456Y33584D01*
G01X46338Y33702D01*
G01X43110Y33702D01*
G01X42204Y34607D01*
G01X40354Y34607D01*
G01X39488Y33741D01*
G01X39488Y32887D01*
G01X39494Y32882D01*
G01X47559Y34175D02*
G01X46456Y34175D01*
G01X46299Y34017D01*
G01X43267Y34017D01*
G01X42362Y34922D01*
G01X40196Y34922D01*
G01X39173Y33899D01*
G01X37637Y33899D01*
G01X37480Y33741D01*
G01X37480Y32900D01*
G01X37462Y32882D01*
G01X47835Y34450D02*
G01X46495Y34450D01*
G01X46220Y34174D01*
G01X43346Y34174D01*
G01X42440Y35080D01*
G01X40118Y35080D01*
G01X39094Y34056D01*
G01X37558Y34056D01*
G01X37283Y33781D01*
G01X36535Y33781D01*
G01X36456Y33702D01*
G01X36456Y32892D01*
G01X36446Y32882D01*
G01X48110Y34765D02*
G01X46574Y34765D01*
G01X46141Y34332D01*
G01X43425Y34332D01*
G01X42519Y35237D01*
G01X40039Y35237D01*
G01X39015Y34214D01*
G01X37480Y34214D01*
G01X37204Y33938D01*
G01X35748Y33938D01*
G01X35433Y33623D01*
G01X35433Y32885D01*
G01X35429Y32882D01*
G01X48622Y41931D02*
G01X48346Y41931D01*
G01X47559Y41143D01*
G01X47559Y39373D01*
G01X47558Y39372D01*
G01X48898Y42246D02*
G01X48425Y42246D01*
G01X47283Y41104D01*
G01X47283Y39608D01*
G01X47283Y39608D01*
G01X48267Y43663D02*
G01X48267Y42954D01*
G01X46850Y41537D01*
G01X46850Y38269D01*
G01X46377Y37796D01*
G01X43723Y37796D01*
G01X42541Y38978D01*
G01X48110Y43663D02*
G01X48110Y43072D01*
G01X46692Y41655D01*
G01X46692Y38348D01*
G01X46299Y37954D01*
G01X44581Y37954D01*
G01X43558Y38978D01*
G01X45354Y39647D02*
G01X46417Y39647D01*
G01X46535Y39529D01*
G01X46535Y38426D01*
G01X46220Y38111D01*
G01X45440Y38111D01*
G01X44574Y38978D01*
G01X35236Y40986D02*
G01X35236Y40631D01*
G01X35078Y40474D01*
G01X34087Y40474D01*
G01X34087Y40474D01*
G01X30374Y44848D02*
G01X29491Y44848D01*
G01X29133Y44489D01*
G01X29133Y40631D01*
G01X29291Y40474D01*
G01X30086Y40474D01*
G01X30087Y40474D01*
G01X72638Y40946D02*
G01X72638Y40631D01*
G01X72480Y40474D01*
G01X71488Y40474D01*
G01X71488Y40474D01*
G01X67874Y44848D02*
G01X66972Y44848D01*
G01X66614Y44489D01*
G01X66614Y40631D01*
G01X66771Y40474D01*
G01X67487Y40474D01*
G01X67488Y40474D01*
G01X42716Y40907D02*
G01X42716Y40592D01*
G01X42598Y40474D01*
G01X41567Y40474D01*
G01X41566Y40474D01*
G01X37874Y44848D02*
G01X36972Y44848D01*
G01X36614Y44489D01*
G01X36614Y40592D01*
G01X36732Y40474D01*
G01X37566Y40474D01*
G01X37566Y40474D01*
G01X49086Y40474D02*
G01X50197Y40474D01*
G01X50335Y40612D01*
G01X45374Y44848D02*
G01X44413Y44848D01*
G01X44094Y44529D01*
G01X44094Y40631D01*
G01X44251Y40474D01*
G01X45085Y40474D01*
G01X45086Y40474D01*
G01X65156Y40946D02*
G01X65156Y40670D01*
G01X64960Y40474D01*
G01X64008Y40474D01*
G01X64007Y40474D01*
G01X60374Y44848D02*
G01X59413Y44848D01*
G01X59054Y44489D01*
G01X59054Y40592D01*
G01X59173Y40474D01*
G01X60007Y40474D01*
G01X60008Y40474D01*
G01X57677Y40946D02*
G01X57677Y40670D01*
G01X57480Y40474D01*
G01X56489Y40474D01*
G01X56489Y40474D01*
G01X48465Y42521D02*
G01X48464Y42521D01*
G01X47007Y41064D01*
G01X47007Y38190D01*
G01X46456Y37639D01*
G01X42864Y37639D01*
G01X41526Y38978D01*
G01X50063Y37348D02*
G01X49236Y37348D01*
G01X48818Y36930D01*
G01X48818Y33151D01*
G01X49015Y32954D01*
G01X49810Y32954D01*
G01X49811Y32954D01*
G01X54921Y34962D02*
G01X54921Y33111D01*
G01X54763Y32954D01*
G01X53811Y32954D01*
G01X53811Y32954D01*
G01X3188Y37348D02*
G01X2267Y37348D01*
G01X1929Y37009D01*
G01X1929Y33072D01*
G01X2047Y32954D01*
G01X2881Y32954D01*
G01X2881Y32954D01*
G01X8070Y35041D02*
G01X8070Y33112D01*
G01X7913Y32954D01*
G01X6882Y32954D01*
G01X6881Y32954D01*
G01X12563Y37348D02*
G01X11480Y37348D01*
G01X11299Y37166D01*
G01X11299Y33072D01*
G01X11417Y32954D01*
G01X12172Y32954D01*
G01X12173Y32954D01*
G01X17520Y34726D02*
G01X17520Y33112D01*
G01X17362Y32954D01*
G01X16173Y32954D01*
G01X16173Y32954D01*
G01X21937Y37348D02*
G01X20850Y37348D01*
G01X20669Y37166D01*
G01X20669Y33033D01*
G01X20748Y32954D01*
G01X21621Y32954D01*
G01X21622Y32954D01*
G01X26969Y34450D02*
G01X26969Y33112D01*
G01X26811Y32954D01*
G01X25622Y32954D01*
G01X25622Y32954D01*
G01X77252Y37348D02*
G01X76165Y37348D01*
G01X75984Y37166D01*
G01X75984Y33072D01*
G01X76102Y32954D01*
G01X76936Y32954D01*
G01X76936Y32954D01*
G01X82086Y33466D02*
G01X82086Y33112D01*
G01X81929Y32954D01*
G01X80937Y32954D01*
G01X80936Y32954D01*
G01X84752Y37348D02*
G01X83684Y37348D01*
G01X83464Y37127D01*
G01X83464Y33072D01*
G01X83582Y32954D01*
G01X84416Y32954D01*
G01X84417Y32954D01*
G01X89567Y33466D02*
G01X89567Y33072D01*
G01X89448Y32954D01*
G01X88417Y32954D01*
G01X88417Y32954D01*
G01X92252Y37348D02*
G01X91125Y37348D01*
G01X90944Y37166D01*
G01X90944Y33072D01*
G01X91062Y32954D01*
G01X91897Y32954D01*
G01X91898Y32954D01*
G01X97047Y33466D02*
G01X97047Y33111D01*
G01X96889Y32954D01*
G01X95898Y32954D01*
G01X95898Y32954D01*
G01X99752Y37348D02*
G01X98684Y37348D01*
G01X98464Y37127D01*
G01X98464Y33072D01*
G01X98582Y32954D01*
G01X99377Y32954D01*
G01X99378Y32954D01*
G01X104724Y33466D02*
G01X104724Y33111D01*
G01X104566Y32954D01*
G01X103378Y32954D01*
G01X103378Y32954D01*
G01X48110Y35119D02*
G01X46692Y35119D01*
G01X46062Y34489D01*
G01X43503Y34489D01*
G01X42598Y35395D01*
G01X39960Y35395D01*
G01X38936Y34371D01*
G01X37401Y34371D01*
G01X37125Y34096D01*
G01X35628Y34096D01*
G01X34414Y32882D01*
G01X47283Y33860D02*
G01X43188Y33860D01*
G01X42283Y34765D01*
G01X40275Y34765D01*
G01X39251Y33741D01*
G01X38543Y33741D01*
G01X38464Y33663D01*
G01X38464Y32895D01*
G01X38478Y32882D01*
G01X75374Y44848D02*
G01X74413Y44848D01*
G01X74055Y44489D01*
G01X74055Y40867D01*
G01X74448Y40474D01*
G01X75165Y40474D01*
G01X75166Y40474D01*
G01X83810Y44848D02*
G01X82838Y44848D01*
G01X82480Y44489D01*
G01X82480Y40631D01*
G01X82637Y40474D01*
G01X83432Y40474D01*
G01X83433Y40474D01*
G01X92252Y44848D02*
G01X91302Y44848D01*
G01X90905Y44450D01*
G01X90905Y40592D01*
G01X91062Y40434D01*
G01X91819Y40434D01*
G01X91858Y40474D01*
G01X103417Y40474D02*
G01X104724Y40474D01*
G01X99752Y44848D02*
G01X98783Y44848D01*
G01X98425Y44489D01*
G01X98425Y40631D01*
G01X98582Y40474D01*
G01X99416Y40474D01*
G01X99417Y40474D01*
G01X22874Y44848D02*
G01X21972Y44848D01*
G01X21614Y44489D01*
G01X21614Y40631D01*
G01X21771Y40474D01*
G01X22645Y40474D01*
G01X22646Y40474D01*
G01X15374Y44848D02*
G01X14452Y44848D01*
G01X14094Y44489D01*
G01X14094Y40592D01*
G01X14212Y40474D01*
G01X15086Y40474D01*
G01X15087Y40474D01*
G01X5063Y44848D02*
G01X4098Y44848D01*
G01X3740Y44489D01*
G01X3740Y40592D01*
G01X3858Y40474D01*
G01X4692Y40474D01*
G01X4693Y40474D01*
G01X96936Y52348D02*
G01X95928Y52348D01*
G01X95629Y52048D01*
G01X95629Y48151D01*
G01X95826Y47954D01*
G01X96660Y47954D01*
G01X96660Y47954D01*
G01X86626Y52348D02*
G01X85535Y52348D01*
G01X85314Y52127D01*
G01X85314Y48072D01*
G01X85472Y47915D01*
G01X86347Y47915D01*
G01X86385Y47954D01*
G01X79126Y52348D02*
G01X78015Y52348D01*
G01X77834Y52166D01*
G01X77834Y48111D01*
G01X77992Y47954D01*
G01X78747Y47954D01*
G01X78748Y47954D01*
G01X71626Y52348D02*
G01X70574Y52348D01*
G01X70354Y52127D01*
G01X70354Y48111D01*
G01X70511Y47954D01*
G01X71424Y47954D01*
G01X71425Y47954D01*
G01X64126Y52348D02*
G01X63054Y52348D01*
G01X62795Y52088D01*
G01X62795Y48111D01*
G01X62952Y47954D01*
G01X63786Y47954D01*
G01X63786Y47954D01*
G01X56626Y52348D02*
G01X55574Y52348D01*
G01X55393Y52166D01*
G01X55393Y48072D01*
G01X55511Y47954D01*
G01X56306Y47954D01*
G01X56307Y47954D01*
G01X49126Y52348D02*
G01X48015Y52348D01*
G01X47873Y52206D01*
G01X47873Y48072D01*
G01X47991Y47954D01*
G01X48787Y47954D01*
G01X48788Y47954D01*
G01X41626Y52348D02*
G01X40535Y52348D01*
G01X40354Y52166D01*
G01X40354Y48111D01*
G01X40511Y47954D01*
G01X41306Y47954D01*
G01X41307Y47954D01*
G54D13*
G01X5937Y55120D03*
G01X1937Y55120D03*
G01X6881Y47954D03*
G01X2881Y47954D03*
G01X8693Y40474D03*
G01X4693Y40474D03*
G01X6881Y32954D03*
G01X2881Y32954D03*
G01X13346Y55198D03*
G01X9345Y55198D03*
G01X20827Y55199D03*
G01X16827Y55199D03*
G01X28377Y55120D03*
G01X24377Y55120D03*
G01X36054Y55120D03*
G01X32054Y55120D03*
G01X43536Y55120D03*
G01X39536Y55120D03*
G01X51016Y55120D03*
G01X47016Y55120D03*
G01X58496Y55120D03*
G01X54496Y55120D03*
G01X65976Y55120D03*
G01X61976Y55120D03*
G01X73457Y55120D03*
G01X69457Y55120D03*
G01X80936Y55120D03*
G01X76936Y55120D03*
G01X88418Y55120D03*
G01X84418Y55120D03*
G01X95898Y55120D03*
G01X91898Y55120D03*
G01X103378Y55120D03*
G01X99378Y55120D03*
G01X15425Y47954D03*
G01X11425Y47954D03*
G01X22865Y47954D03*
G01X18865Y47954D03*
G01X30347Y47954D03*
G01X26347Y47954D03*
G01X37827Y47954D03*
G01X33827Y47954D03*
G01X45307Y47954D03*
G01X41307Y47954D03*
G01X52788Y47954D03*
G01X48788Y47954D03*
G01X60307Y47954D03*
G01X56307Y47954D03*
G01X67786Y47954D03*
G01X63786Y47954D03*
G01X75425Y47954D03*
G01X71425Y47954D03*
G01X82748Y47954D03*
G01X78748Y47954D03*
G01X90385Y47954D03*
G01X86385Y47954D03*
G01X19087Y40474D03*
G01X15087Y40474D03*
G01X26646Y40474D03*
G01X22646Y40474D03*
G01X34087Y40474D03*
G01X30087Y40474D03*
G01X41566Y40474D03*
G01X37566Y40474D03*
G01X49086Y40474D03*
G01X45086Y40474D03*
G01X56489Y40474D03*
G01X52489Y40474D03*
G01X64007Y40474D03*
G01X60008Y40474D03*
G01X71488Y40474D03*
G01X67488Y40474D03*
G01X79166Y40474D03*
G01X75166Y40474D03*
G01X87433Y40474D03*
G01X83433Y40474D03*
G01X95858Y40474D03*
G01X91858Y40474D03*
G01X103417Y40474D03*
G01X99417Y40474D03*
G01X16173Y32954D03*
G01X12173Y32954D03*
G01X25622Y32954D03*
G01X21622Y32954D03*
G01X53811Y32954D03*
G01X49811Y32954D03*
G01X80936Y32954D03*
G01X76936Y32954D03*
G01X88417Y32954D03*
G01X84417Y32954D03*
G01X95898Y32954D03*
G01X91898Y32954D03*
G01X103378Y32954D03*
G01X99378Y32954D03*
G01X100660Y47954D03*
G01X96660Y47954D03*
G54D14*
G01X45590Y38978D03*
G01X44574Y38978D03*
G01X43558Y38978D03*
G01X42541Y38978D03*
G01X41526Y38978D03*
G01X40510Y38978D03*
G01X39494Y38978D03*
G01X38478Y38978D03*
G01X37462Y38978D03*
G01X36446Y38978D03*
G01X35429Y38978D03*
G01X34414Y38978D03*
G01X34414Y37962D03*
G01X34414Y36946D03*
G01X34414Y35929D03*
G01X34414Y34914D03*
G01X34414Y33898D03*
G01X34414Y32882D03*
G01X35429Y32882D03*
G01X36446Y32882D03*
G01X37462Y32882D03*
G01X38478Y32882D03*
G01X39494Y32882D03*
G01X40510Y32882D03*
G01X41526Y32882D03*
G01X42541Y32882D03*
G01X43558Y32882D03*
G01X44574Y32882D03*
G01X45590Y32882D03*
G01X41526Y33898D03*
G01X41526Y37962D03*
G54D15*
G01X3751Y58848D03*
G54D17*
G01X2251Y59848D03*
G01X4751Y60848D03*
G54D19*
G01X1751Y58848D03*
G01X5751Y58848D03*
G54D15*
G01X11251Y58848D03*
G54D17*
G01X9751Y59848D03*
G01X12251Y60848D03*
G54D19*
G01X9251Y58848D03*
G01X13251Y58848D03*
G54D15*
G01X18752Y58848D03*
G54D17*
G01X17252Y59848D03*
G01X19752Y60848D03*
G54D19*
G01X16752Y58848D03*
G01X20752Y58848D03*
G54D15*
G01X26252Y58848D03*
G54D17*
G01X24752Y59848D03*
G01X27252Y60848D03*
G54D19*
G01X24252Y58848D03*
G01X28252Y58848D03*
G54D15*
G01X33752Y58848D03*
G54D17*
G01X32252Y59848D03*
G01X34752Y60848D03*
G54D19*
G01X31752Y58848D03*
G01X35752Y58848D03*
G54D15*
G01X41252Y58848D03*
G54D17*
G01X39752Y59848D03*
G01X42252Y60848D03*
G54D19*
G01X39252Y58848D03*
G01X43252Y58848D03*
G54D15*
G01X48752Y58848D03*
G54D17*
G01X47252Y59848D03*
G01X49752Y60848D03*
G54D19*
G01X46752Y58848D03*
G01X50752Y58848D03*
G54D15*
G01X56252Y58848D03*
G54D17*
G01X54752Y59848D03*
G01X57252Y60848D03*
G54D19*
G01X54252Y58848D03*
G01X58252Y58848D03*
G54D15*
G01X63752Y58848D03*
G54D17*
G01X62252Y59848D03*
G01X64752Y60848D03*
G54D19*
G01X61752Y58848D03*
G01X65752Y58848D03*
G54D15*
G01X71252Y58848D03*
G54D17*
G01X69752Y59848D03*
G01X72252Y60848D03*
G54D19*
G01X69252Y58848D03*
G01X73252Y58848D03*
G54D15*
G01X78752Y58848D03*
G54D17*
G01X77252Y59848D03*
G01X79752Y60848D03*
G54D19*
G01X76752Y58848D03*
G01X80752Y58848D03*
G54D15*
G01X86252Y58848D03*
G54D17*
G01X84752Y59848D03*
G01X87252Y60848D03*
G54D19*
G01X84252Y58848D03*
G01X88252Y58848D03*
G54D15*
G01X93752Y58848D03*
G54D17*
G01X92252Y59848D03*
G01X94752Y60848D03*
G54D19*
G01X91752Y58848D03*
G01X95752Y58848D03*
G54D15*
G01X101252Y58848D03*
G54D17*
G01X99752Y59848D03*
G01X102252Y60848D03*
G54D19*
G01X99252Y58848D03*
G01X103252Y58848D03*
G54D15*
G01X4688Y51348D03*
G54D17*
G01X3188Y52348D03*
G01X5688Y53348D03*
G54D19*
G01X2688Y51348D03*
G01X6688Y51348D03*
G54D15*
G01X6563Y43848D03*
G54D17*
G01X5063Y44848D03*
G01X7563Y45848D03*
G54D19*
G01X4563Y43848D03*
G01X8563Y43848D03*
G54D15*
G01X4688Y36348D03*
G54D17*
G01X3188Y37348D03*
G01X5688Y38348D03*
G54D19*
G01X2688Y36348D03*
G01X6688Y36348D03*
G54D15*
G01X13126Y51348D03*
G54D17*
G01X11626Y52348D03*
G01X14126Y53348D03*
G54D19*
G01X11126Y51348D03*
G01X15126Y51348D03*
G54D15*
G01X20626Y51348D03*
G54D17*
G01X19126Y52348D03*
G01X21626Y53348D03*
G54D19*
G01X18626Y51348D03*
G01X22626Y51348D03*
G54D15*
G01X28126Y51348D03*
G54D17*
G01X26626Y52348D03*
G01X29126Y53348D03*
G54D19*
G01X26126Y51348D03*
G01X30126Y51348D03*
G54D15*
G01X35626Y51348D03*
G54D17*
G01X34126Y52348D03*
G01X36626Y53348D03*
G54D19*
G01X33626Y51348D03*
G01X37626Y51348D03*
G54D15*
G01X43126Y51348D03*
G54D17*
G01X41626Y52348D03*
G01X44126Y53348D03*
G54D19*
G01X41126Y51348D03*
G01X45126Y51348D03*
G54D15*
G01X50626Y51348D03*
G54D17*
G01X49126Y52348D03*
G01X51626Y53348D03*
G54D19*
G01X48626Y51348D03*
G01X52626Y51348D03*
G54D15*
G01X58126Y51348D03*
G54D17*
G01X56626Y52348D03*
G01X59126Y53348D03*
G54D19*
G01X56126Y51348D03*
G01X60126Y51348D03*
G54D15*
G01X65626Y51348D03*
G54D17*
G01X64126Y52348D03*
G01X66626Y53348D03*
G54D19*
G01X63626Y51348D03*
G01X67626Y51348D03*
G54D15*
G01X73126Y51348D03*
G54D17*
G01X71626Y52348D03*
G01X74126Y53348D03*
G54D19*
G01X71126Y51348D03*
G01X75126Y51348D03*
G54D15*
G01X80626Y51348D03*
G54D17*
G01X79126Y52348D03*
G01X81626Y53348D03*
G54D19*
G01X78626Y51348D03*
G01X82626Y51348D03*
G54D15*
G01X88126Y51348D03*
G54D17*
G01X86626Y52348D03*
G01X89126Y53348D03*
G54D19*
G01X86126Y51348D03*
G01X90126Y51348D03*
G54D15*
G01X98436Y51348D03*
G54D17*
G01X96936Y52348D03*
G01X99436Y53348D03*
G54D19*
G01X96436Y51348D03*
G01X100436Y51348D03*
G54D15*
G01X16874Y43848D03*
G54D17*
G01X15374Y44848D03*
G01X17874Y45848D03*
G54D19*
G01X14874Y43848D03*
G01X18874Y43848D03*
G54D15*
G01X24374Y43848D03*
G54D17*
G01X22874Y44848D03*
G01X25374Y45848D03*
G54D19*
G01X22374Y43848D03*
G01X26374Y43848D03*
G54D15*
G01X31874Y43848D03*
G54D17*
G01X30374Y44848D03*
G01X32874Y45848D03*
G54D19*
G01X29874Y43848D03*
G01X33874Y43848D03*
G54D15*
G01X39374Y43848D03*
G54D17*
G01X37874Y44848D03*
G01X40374Y45848D03*
G54D19*
G01X37374Y43848D03*
G01X41374Y43848D03*
G54D15*
G01X46874Y43848D03*
G54D17*
G01X45374Y44848D03*
G01X47874Y45848D03*
G54D19*
G01X44874Y43848D03*
G01X48874Y43848D03*
G54D15*
G01X54374Y43848D03*
G54D17*
G01X52874Y44848D03*
G01X55374Y45848D03*
G54D19*
G01X52374Y43848D03*
G01X56374Y43848D03*
G54D15*
G01X61874Y43848D03*
G54D17*
G01X60374Y44848D03*
G01X62874Y45848D03*
G54D19*
G01X59874Y43848D03*
G01X63874Y43848D03*
G54D15*
G01X69374Y43848D03*
G54D17*
G01X67874Y44848D03*
G01X70374Y45848D03*
G54D19*
G01X67374Y43848D03*
G01X71374Y43848D03*
G54D15*
G01X76874Y43848D03*
G54D17*
G01X75374Y44848D03*
G01X77874Y45848D03*
G54D19*
G01X74874Y43848D03*
G01X78874Y43848D03*
G54D15*
G01X85310Y43848D03*
G54D17*
G01X83810Y44848D03*
G01X86310Y45848D03*
G54D19*
G01X83310Y43848D03*
G01X87310Y43848D03*
G54D15*
G01X93752Y43848D03*
G54D17*
G01X92252Y44848D03*
G01X94752Y45848D03*
G54D19*
G01X91752Y43848D03*
G01X95752Y43848D03*
G54D15*
G01X101252Y43848D03*
G54D17*
G01X99752Y44848D03*
G01X102252Y45848D03*
G54D19*
G01X99252Y43848D03*
G01X103252Y43848D03*
G54D15*
G01X14063Y36348D03*
G54D17*
G01X12563Y37348D03*
G01X15063Y38348D03*
G54D19*
G01X12063Y36348D03*
G01X16063Y36348D03*
G54D15*
G01X23437Y36348D03*
G54D17*
G01X21937Y37348D03*
G01X24437Y38348D03*
G54D19*
G01X21437Y36348D03*
G01X25437Y36348D03*
G54D15*
G01X51563Y36348D03*
G54D17*
G01X50063Y37348D03*
G01X52563Y38348D03*
G54D19*
G01X49563Y36348D03*
G01X53563Y36348D03*
G54D15*
G01X78752Y36348D03*
G54D17*
G01X77252Y37348D03*
G01X79752Y38348D03*
G54D19*
G01X76752Y36348D03*
G01X80752Y36348D03*
G54D15*
G01X86252Y36348D03*
G54D17*
G01X84752Y37348D03*
G01X87252Y38348D03*
G54D19*
G01X84252Y36348D03*
G01X88252Y36348D03*
G54D15*
G01X93752Y36348D03*
G54D17*
G01X92252Y37348D03*
G01X94752Y38348D03*
G54D19*
G01X91752Y36348D03*
G01X95752Y36348D03*
G54D15*
G01X101252Y36348D03*
G54D17*
G01X99752Y37348D03*
G01X102252Y38348D03*
G54D19*
G01X99252Y36348D03*
G01X103252Y36348D03*
G54D12*
G01X48110Y35474D03*
G01X48110Y36183D03*
G01X97047Y33466D03*
G01X48622Y41379D03*
G01X48898Y41655D03*
G01X48622Y41931D03*
G01X48898Y42246D03*
G01X50197Y42246D03*
G01X57677Y42246D03*
G01X65156Y42246D03*
G01X42716Y40907D03*
G01X46457Y46655D03*
G01X44094Y50002D03*
G01X37835Y57285D03*
G01X35236Y41183D03*
G01X28622Y41458D03*
G01X8070Y35041D03*
G01X17520Y34726D03*
G01X105118Y33821D03*
G01X104724Y33466D03*
G01X82086Y33466D03*
G01X89567Y33466D03*
G01X72638Y42246D03*
G01X48109Y35828D03*
G01X48110Y34765D03*
G01X48110Y35119D03*
G01X48110Y39372D03*
G01X47835Y34450D03*
G01X47559Y34175D03*
G01X47283Y33860D03*
G01X47008Y33584D03*
G01X47835Y39608D03*
G01X47558Y39372D03*
G01X47283Y39608D03*
G01X48465Y42521D03*

M00*
M02*