;Drill file created by EasyEDA
M48
;Holesize 1 = 0.032 INCH
T01C0.032
;Holesize 2 = 0.040 INCH
T02C0.040
;Holesize 3 = 0.160 INCH
T03C0.160
;Holesize 4 = 0.059 INCH
T04C0.059
;Holesize 5 = 0.067 INCH
T05C0.067
;Holesize 6 = 0.016 INCH
T06C0.016
;Holesize 7 = 0.120 INCH
T07C0.120
;Holesize 8 = 0.157 INCH
T08C0.157
INCH,00.0000
%
G05
G90
T01
X005937Y055120
X001937Y055120
X006881Y047954
X002881Y047954
X008693Y040474
X004693Y040474
X006881Y032954
X002881Y032954
X013346Y055198
X009345Y055198
X020827Y055199
X016827Y055199
X028377Y055120
X024377Y055120
X036054Y055120
X032054Y055120
X043536Y055120
X039536Y055120
X051016Y055120
X047016Y055120
X058496Y055120
X054496Y055120
X065976Y055120
X061976Y055120
X073457Y055120
X069457Y055120
X080936Y055120
X076936Y055120
X088418Y055120
X084418Y055120
X095898Y055120
X091898Y055120
X103378Y055120
X099378Y055120
X015425Y047954
X011425Y047954
X022865Y047954
X018865Y047954
X030347Y047954
X026347Y047954
X037827Y047954
X033827Y047954
X045307Y047954
X041307Y047954
X052788Y047954
X048788Y047954
X060307Y047954
X056307Y047954
X067786Y047954
X063786Y047954
X075425Y047954
X071425Y047954
X082748Y047954
X078748Y047954
X090385Y047954
X086385Y047954
X019087Y040474
X015087Y040474
X026646Y040474
X022646Y040474
X034087Y040474
X030087Y040474
X041566Y040474
X037566Y040474
X049086Y040474
X045086Y040474
X056489Y040474
X052489Y040474
X064007Y040474
X060008Y040474
X071488Y040474
X067488Y040474
X079166Y040474
X075166Y040474
X087433Y040474
X083433Y040474
X095858Y040474
X091858Y040474
X103417Y040474
X099417Y040474
X016173Y032954
X012173Y032954
X025622Y032954
X021622Y032954
X053811Y032954
X049811Y032954
X080936Y032954
X076936Y032954
X088417Y032954
X084417Y032954
X095898Y032954
X091898Y032954
X103378Y032954
X099378Y032954
X100660Y047954
X096660Y047954
T02
X045590Y038978
X044574Y038978
X043558Y038978
X042541Y038978
X041526Y038978
X040510Y038978
X039494Y038978
X038478Y038978
X037462Y038978
X036446Y038978
X035429Y038978
X034414Y038978
X034414Y037962
X034414Y036946
X034414Y035929
X034414Y034914
X034414Y033898
X034414Y032882
X035429Y032882
X036446Y032882
X037462Y032882
X038478Y032882
X039494Y032882
X040510Y032882
X041526Y032882
X042541Y032882
X043558Y032882
X044574Y032882
X045590Y032882
X041526Y033898
X041526Y037962
T03
X003751Y058848
X011251Y058848
X018752Y058848
X026252Y058848
X033752Y058848
X041252Y058848
X048752Y058848
X056252Y058848
X063752Y058848
X071252Y058848
X078752Y058848
X086252Y058848
X093752Y058848
X101252Y058848
X004688Y051348
X006563Y043848
X004688Y036348
X013126Y051348
X020626Y051348
X028126Y051348
X035626Y051348
X043126Y051348
X050626Y051348
X058126Y051348
X065626Y051348
X073126Y051348
X080626Y051348
X088126Y051348
X098436Y051348
X016874Y043848
X024374Y043848
X031874Y043848
X039374Y043848
X046874Y043848
X054374Y043848
X061874Y043848
X069374Y043848
X076874Y043848
X085310Y043848
X093752Y043848
X101252Y043848
X014063Y036348
X023437Y036348
X051563Y036348
X078752Y036348
X086252Y036348
X093752Y036348
X101252Y036348
T04
X002251Y059848
X004751Y060848
X009751Y059848
X012251Y060848
X017252Y059848
X019752Y060848
X024752Y059848
X027252Y060848
X032252Y059848
X034752Y060848
X039752Y059848
X042252Y060848
X047252Y059848
X049752Y060848
X054752Y059848
X057252Y060848
X062252Y059848
X064752Y060848
X069752Y059848
X072252Y060848
X077252Y059848
X079752Y060848
X084752Y059848
X087252Y060848
X092252Y059848
X094752Y060848
X099752Y059848
X102252Y060848
X003188Y052348
X005688Y053348
X005063Y044848
X007563Y045848
X003188Y037348
X005688Y038348
X011626Y052348
X014126Y053348
X019126Y052348
X021626Y053348
X026626Y052348
X029126Y053348
X034126Y052348
X036626Y053348
X041626Y052348
X044126Y053348
X049126Y052348
X051626Y053348
X056626Y052348
X059126Y053348
X064126Y052348
X066626Y053348
X071626Y052348
X074126Y053348
X079126Y052348
X081626Y053348
X086626Y052348
X089126Y053348
X096936Y052348
X099436Y053348
X015374Y044848
X017874Y045848
X022874Y044848
X025374Y045848
X030374Y044848
X032874Y045848
X037874Y044848
X040374Y045848
X045374Y044848
X047874Y045848
X052874Y044848
X055374Y045848
X060374Y044848
X062874Y045848
X067874Y044848
X070374Y045848
X075374Y044848
X077874Y045848
X083810Y044848
X086310Y045848
X092252Y044848
X094752Y045848
X099752Y044848
X102252Y045848
X012563Y037348
X015063Y038348
X021937Y037348
X024437Y038348
X050063Y037348
X052563Y038348
X077252Y037348
X079752Y038348
X084752Y037348
X087252Y038348
X092252Y037348
X094752Y038348
X099752Y037348
X102252Y038348
T05
X001751Y058848
X005751Y058848
X009251Y058848
X013251Y058848
X016752Y058848
X020752Y058848
X024252Y058848
X028252Y058848
X031752Y058848
X035752Y058848
X039252Y058848
X043252Y058848
X046752Y058848
X050752Y058848
X054252Y058848
X058252Y058848
X061752Y058848
X065752Y058848
X069252Y058848
X073252Y058848
X076752Y058848
X080752Y058848
X084252Y058848
X088252Y058848
X091752Y058848
X095752Y058848
X099252Y058848
X103252Y058848
X002688Y051348
X006688Y051348
X004563Y043848
X008563Y043848
X002688Y036348
X006688Y036348
X011126Y051348
X015126Y051348
X018626Y051348
X022626Y051348
X026126Y051348
X030126Y051348
X033626Y051348
X037626Y051348
X041126Y051348
X045126Y051348
X048626Y051348
X052626Y051348
X056126Y051348
X060126Y051348
X063626Y051348
X067626Y051348
X071126Y051348
X075126Y051348
X078626Y051348
X082626Y051348
X086126Y051348
X090126Y051348
X096436Y051348
X100436Y051348
X014874Y043848
X018874Y043848
X022374Y043848
X026374Y043848
X029874Y043848
X033874Y043848
X037374Y043848
X041374Y043848
X044874Y043848
X048874Y043848
X052374Y043848
X056374Y043848
X059874Y043848
X063874Y043848
X067374Y043848
X071374Y043848
X074874Y043848
X078874Y043848
X083310Y043848
X087310Y043848
X091752Y043848
X095752Y043848
X099252Y043848
X103252Y043848
X012063Y036348
X016063Y036348
X021437Y036348
X025437Y036348
X049563Y036348
X053563Y036348
X076752Y036348
X080752Y036348
X084252Y036348
X088252Y036348
X091752Y036348
X095752Y036348
X099252Y036348
X103252Y036348
T06
X048110Y035474
X048110Y036183
X097047Y033466
X048622Y041379
X048898Y041655
X048622Y041931
X048898Y042246
X050197Y042246
X057677Y042246
X065156Y042246
X042716Y040907
X046457Y046655
X044094Y050002
X037835Y057285
X035236Y041183
X028622Y041458
X008070Y035041
X017520Y034726
X105118Y033821
X104724Y033466
X082086Y033466
X089567Y033466
X072638Y042246
X048109Y035828
X048110Y034765
X048110Y035119
X048110Y039372
X047835Y034450
X047559Y034175
X047283Y033860
X047008Y033584
X047835Y039608
X047558Y039372
X047283Y039608
X048465Y042521
T07
X031877Y039100
X071248Y039100
T08
X031877Y033100
X071248Y033100
M30
