G04 ---------------------------- Layer name :BOTTOM LAYER*
G04 easyEDA 0.1*
G04 Scale: 100 percent, Rotated: No, Reflected: No *
G04 Dimensions in inches *
G04 leading zeros omitted , absolute positions ,2 integer and 4 * 
%FSLAX24Y24*%
%MOIN*%
G90*
G70D02*

%ADD10C,0.010000*%
%ADD11C,0.007874*%
%ADD12C,0.023600*%
%ADD13R,0.085900X0.047700*%
%ADD14R,0.076200X0.086400*%
%ADD15C,0.170000*%
%ADD17C,0.086000*%
%ADD19C,0.087000*%

%LPD*%
%LNVIA PAD TRACK COPPERAREA*%
G54D11*
G01X11220Y50001D02*
G01X36023Y50001D01*
G01X36023Y50001D02*
G01X44094Y50001D01*
G01X44094Y50001D02*
G01X100984Y50001D01*
G01X101180Y50198D01*
G01X101180Y53151D01*
G01X100984Y53348D01*
G01X99436Y53348D01*
G54D10*
G01X89126Y53348D02*
G01X91338Y53348D01*
G01X91732Y52954D01*
G01X91732Y50002D01*
G01X91732Y50002D01*
G01X81626Y53348D02*
G01X83858Y53348D01*
G01X84251Y52954D01*
G01X84251Y50002D01*
G01X84252Y50002D01*
G01X74126Y53348D02*
G01X76377Y53348D01*
G01X76771Y52954D01*
G01X76771Y50002D01*
G01X76771Y50002D01*
G01X66626Y53348D02*
G01X68897Y53348D01*
G01X69291Y52954D01*
G01X69291Y50002D01*
G01X69291Y50002D01*
G01X59126Y53348D02*
G01X61417Y53348D01*
G01X61810Y52954D01*
G01X61810Y50002D01*
G01X61811Y50002D01*
G01X51626Y53348D02*
G01X53740Y53348D01*
G01X54133Y52954D01*
G01X54133Y50002D01*
G01X54134Y50002D01*
G01X44126Y53348D02*
G01X46456Y53348D01*
G01X46850Y52954D01*
G01X46850Y50002D01*
G01X46850Y50002D01*
G01X36626Y53348D02*
G01X38976Y53348D01*
G01X39370Y52954D01*
G01X39370Y50002D01*
G01X29126Y53348D02*
G01X31496Y53348D01*
G01X31889Y52954D01*
G01X31889Y50002D01*
G01X31889Y50002D01*
G01X21626Y53348D02*
G01X23818Y53348D01*
G01X24212Y52954D01*
G01X24212Y50002D01*
G01X24213Y50002D01*
G01X14126Y53348D02*
G01X16338Y53348D01*
G01X16732Y52954D01*
G01X16732Y50002D01*
G01X16732Y50002D01*
G54D11*
G01X4751Y60848D02*
G01X6870Y60848D01*
G01X7480Y60237D01*
G01X7480Y57481D01*
G01X7677Y57285D01*
G01X22440Y57285D01*
G01X22440Y57285D02*
G01X37834Y57285D01*
G01X37834Y57285D02*
G01X104133Y57285D01*
G01X104527Y57678D01*
G01X104527Y60434D01*
G01X104133Y60828D01*
G01X102271Y60828D01*
G01X102252Y60848D01*
G54D10*
G01X94752Y60848D02*
G01X97224Y60848D01*
G01X97440Y60631D01*
G01X97440Y57285D01*
G01X97441Y57285D01*
G01X87252Y60848D02*
G01X89350Y60848D01*
G01X89763Y60434D01*
G01X89763Y57285D01*
G01X89764Y57285D01*
G01X79752Y60848D02*
G01X81869Y60848D01*
G01X82283Y60434D01*
G01X82283Y57285D01*
G01X82283Y57285D01*
G01X72252Y60848D02*
G01X74389Y60848D01*
G01X74803Y60434D01*
G01X74803Y57285D01*
G01X64752Y60848D02*
G01X66909Y60848D01*
G01X67322Y60434D01*
G01X67322Y57285D01*
G01X67323Y57285D01*
G01X57252Y60848D02*
G01X59429Y60848D01*
G01X59842Y60434D01*
G01X59842Y57285D01*
G01X59841Y57285D01*
G01X49752Y60848D02*
G01X51948Y60848D01*
G01X52362Y60434D01*
G01X52362Y57285D01*
G01X52362Y57285D01*
G01X42252Y60848D02*
G01X44468Y60848D01*
G01X44881Y60434D01*
G01X44881Y57285D01*
G01X44882Y57285D01*
G01X34752Y60848D02*
G01X36988Y60848D01*
G01X37401Y60434D01*
G01X37401Y57285D01*
G01X37402Y57285D01*
G01X27252Y60848D02*
G01X29507Y60848D01*
G01X29921Y60434D01*
G01X29921Y57285D01*
G01X29921Y57285D01*
G01X19752Y60848D02*
G01X22027Y60848D01*
G01X22440Y60434D01*
G01X22440Y57285D01*
G01X22440Y57285D01*
G01X12251Y60848D02*
G01X14350Y60848D01*
G01X14763Y60434D01*
G01X14763Y57285D01*
G01X14763Y57285D01*
G01X8464Y46655D02*
G01X43110Y46654D01*
G01X43110Y46654D02*
G01X43425Y46654D01*
G01X43425Y46654D02*
G01X46456Y46654D01*
G01X46456Y46654D02*
G01X101771Y46655D01*
G01X7563Y45848D02*
G01X7657Y45848D01*
G01X8464Y46655D01*
G01X17874Y45848D02*
G01X17894Y45848D01*
G01X18701Y46655D01*
G01X25374Y45848D02*
G01X25374Y45848D01*
G01X26180Y46655D01*
G01X32874Y45848D02*
G01X32874Y45868D01*
G01X33661Y46655D01*
G01X40374Y45848D02*
G01X40374Y45887D01*
G01X41141Y46655D01*
G01X47874Y45848D02*
G01X47874Y45907D01*
G01X48622Y46655D01*
G01X55374Y45848D02*
G01X55374Y45927D01*
G01X56102Y46655D01*
G01X62874Y45848D02*
G01X62874Y45947D01*
G01X63581Y46655D01*
G01X70374Y45848D02*
G01X70453Y45848D01*
G01X71259Y46655D01*
G01X77874Y45848D02*
G01X77933Y45848D01*
G01X78740Y46655D01*
G01X86310Y45848D02*
G01X86310Y45958D01*
G01X87008Y46655D01*
G01X94752Y45848D02*
G01X94752Y45935D01*
G01X95472Y46655D01*
G01X102252Y45848D02*
G01X102252Y46175D01*
G01X101772Y46655D01*
G54D11*
G01X102165Y42521D02*
G01X48465Y42521D01*
G01X48465Y42521D02*
G01X5910Y42521D01*
G54D10*
G01X5688Y38348D02*
G01X5688Y42304D01*
G01X5906Y42521D01*
G01X15063Y38348D02*
G01X15000Y38348D01*
G01X13582Y39765D01*
G01X13582Y42324D01*
G01X13386Y42521D01*
G01X24437Y38348D02*
G01X24437Y42352D01*
G01X24605Y42521D01*
G01X79752Y38348D02*
G01X79752Y38415D01*
G01X80511Y39174D01*
G01X80511Y42323D01*
G01X80708Y42521D01*
G01X87252Y38348D02*
G01X87244Y38348D01*
G01X86614Y38978D01*
G01X86614Y42324D01*
G01X86417Y42521D01*
G01X94752Y38348D02*
G01X95826Y38348D01*
G01X97243Y39765D01*
G01X97243Y42323D01*
G01X97441Y42521D01*
G54D11*
G01X102252Y38348D02*
G01X102252Y42434D01*
G01X102165Y42521D01*
G01X48898Y42246D02*
G01X50196Y42245D01*
G01X5688Y53348D02*
G01X6850Y53348D01*
G01X10196Y50001D01*
G01X11220Y50001D01*
G01X11221Y50002D01*
G01X82086Y33466D02*
G01X74803Y33466D01*
G01X73228Y35041D01*
G01X73228Y40237D01*
G01X72558Y40907D01*
G01X69960Y40907D01*
G01X69291Y40237D01*
G01X69291Y35041D01*
G01X67716Y33466D01*
G01X49960Y33466D01*
G01X48661Y34765D01*
G01X48110Y34765D01*
G01X48110Y34765D01*
G01X89567Y33466D02*
G01X83070Y33466D01*
G01X82677Y33859D01*
G01X81338Y33859D01*
G01X81102Y33623D01*
G01X74881Y33623D01*
G01X73385Y35119D01*
G01X73385Y40316D01*
G01X72637Y41064D01*
G01X69881Y41064D01*
G01X69133Y40316D01*
G01X69133Y35119D01*
G01X67637Y33623D01*
G01X50039Y33623D01*
G01X48543Y35119D01*
G01X48110Y35119D01*
G01X48110Y35119D01*
G01X97047Y33466D02*
G01X90551Y33466D01*
G01X90157Y33859D01*
G01X89212Y33859D01*
G01X88976Y33623D01*
G01X83188Y33623D01*
G01X82795Y34017D01*
G01X81259Y34017D01*
G01X81023Y33781D01*
G01X74960Y33781D01*
G01X73543Y35198D01*
G01X73543Y40395D01*
G01X72716Y41222D01*
G01X69803Y41222D01*
G01X68976Y40395D01*
G01X68976Y35198D01*
G01X67558Y33781D01*
G01X50117Y33781D01*
G01X48425Y35474D01*
G01X48110Y35474D01*
G01X48110Y35474D01*
G01X104724Y33466D02*
G01X97992Y33466D01*
G01X97637Y33820D01*
G01X96653Y33820D01*
G01X96456Y33623D01*
G01X90629Y33623D01*
G01X90235Y34017D01*
G01X89133Y34017D01*
G01X88897Y33781D01*
G01X83267Y33781D01*
G01X82873Y34174D01*
G01X81181Y34174D01*
G01X80944Y33938D01*
G01X75039Y33938D01*
G01X73700Y35277D01*
G01X73700Y40474D01*
G01X72795Y41379D01*
G01X69724Y41379D01*
G01X68818Y40474D01*
G01X68818Y35277D01*
G01X67480Y33938D01*
G01X50196Y33938D01*
G01X48307Y35828D01*
G01X48109Y35828D01*
G01X48109Y35828D01*
G01X105118Y33821D02*
G01X104134Y33821D01*
G01X103936Y33623D01*
G01X98070Y33623D01*
G01X97716Y33978D01*
G01X96574Y33978D01*
G01X96377Y33781D01*
G01X90708Y33781D01*
G01X90314Y34174D01*
G01X89055Y34174D01*
G01X88818Y33938D01*
G01X83346Y33938D01*
G01X82952Y34332D01*
G01X81102Y34332D01*
G01X80866Y34096D01*
G01X75118Y34096D01*
G01X73858Y35355D01*
G01X73858Y40552D01*
G01X72873Y41537D01*
G01X69645Y41537D01*
G01X68661Y40552D01*
G01X68661Y35355D01*
G01X67401Y34096D01*
G01X50275Y34096D01*
G01X48307Y36064D01*
G01X48228Y36064D01*
G01X48110Y36183D01*
G01X57677Y42246D02*
G01X50708Y42246D01*
G01X50393Y41930D01*
G01X48622Y41930D01*
G01X48622Y41931D01*
G01X65156Y42246D02*
G01X58582Y42246D01*
G01X58267Y41930D01*
G01X50669Y41930D01*
G01X50393Y41655D01*
G01X48898Y41655D01*
G01X48898Y41655D01*
G01X72638Y42246D02*
G01X66102Y42246D01*
G01X65787Y41930D01*
G01X58582Y41930D01*
G01X58307Y41655D01*
G01X50669Y41655D01*
G01X50393Y41379D01*
G01X48622Y41379D01*
G01X48622Y41379D01*
G01X8070Y35041D02*
G01X26968Y35041D01*
G01X27086Y35159D01*
G01X27086Y38663D01*
G01X28188Y39765D01*
G01X28188Y41694D01*
G01X28425Y41930D01*
G01X28818Y41930D01*
G01X28976Y41773D01*
G01X35590Y41773D01*
G01X35708Y41655D01*
G01X43149Y41655D01*
G01X43267Y41537D01*
G01X45866Y41537D01*
G01X47007Y40395D01*
G01X47007Y38781D01*
G01X47007Y37639D01*
G01X47007Y36497D01*
G01X44606Y34096D01*
G01X44606Y32914D01*
G01X44574Y32882D01*
G01X17520Y34726D02*
G01X17755Y34726D01*
G01X17913Y34883D01*
G01X27047Y34883D01*
G01X27244Y35080D01*
G01X27244Y38584D01*
G01X28346Y39686D01*
G01X28346Y41615D01*
G01X28464Y41733D01*
G01X28779Y41733D01*
G01X28897Y41615D01*
G01X35511Y41615D01*
G01X35629Y41497D01*
G01X43070Y41497D01*
G01X43188Y41379D01*
G01X45787Y41379D01*
G01X46850Y40316D01*
G01X46850Y38702D01*
G01X46850Y37796D01*
G01X46850Y36576D01*
G01X44015Y33741D01*
G01X43622Y33741D01*
G01X43543Y33663D01*
G01X43543Y32896D01*
G01X43558Y32882D01*
G01X28622Y41458D02*
G01X35393Y41458D01*
G01X35511Y41340D01*
G01X42992Y41340D01*
G01X43110Y41222D01*
G01X45708Y41222D01*
G01X46692Y40237D01*
G01X46692Y38623D01*
G01X46692Y37796D01*
G01X46692Y36655D01*
G01X43976Y33938D01*
G01X42755Y33938D01*
G01X42559Y33741D01*
G01X42559Y32899D01*
G01X42541Y32882D01*
G01X35236Y41183D02*
G01X42873Y41183D01*
G01X42991Y41064D01*
G01X45629Y41064D01*
G01X46535Y40159D01*
G01X46535Y38544D01*
G01X46535Y37757D01*
G01X46535Y36733D01*
G01X43897Y34096D01*
G01X42362Y34096D01*
G01X42165Y33899D01*
G01X42165Y33521D01*
G01X41526Y32882D01*
G01X42716Y40907D02*
G01X45551Y40907D01*
G01X46377Y40080D01*
G01X46377Y38466D01*
G01X46377Y37718D01*
G01X46377Y36812D01*
G01X43818Y34253D01*
G01X42559Y34253D01*
G01X42204Y34607D01*
G01X40866Y34607D01*
G01X40511Y34253D01*
G01X40511Y32883D01*
G01X40510Y32882D01*
G01X48110Y39371D02*
G01X48110Y36654D01*
G01X47834Y36379D01*
G01X47834Y34450D01*
G01X47835Y34450D01*
G01X47834Y39607D02*
G01X47834Y36615D01*
G01X47559Y36340D01*
G01X47559Y34175D01*
G01X47558Y39372D02*
G01X47558Y36575D01*
G01X47283Y36300D01*
G01X47283Y33860D01*
G01X47283Y33860D01*
G01X47283Y39608D02*
G01X47283Y36536D01*
G01X47007Y36261D01*
G01X47007Y33584D01*
G01X47008Y33584D01*
G01X48465Y42521D02*
G01X48464Y42521D01*
G01X48228Y42285D01*
G01X48228Y40041D01*
G01X49921Y38348D01*
G01X52562Y38348D01*
G01X52563Y38348D01*
G54D13*
G01X5937Y55120D03*
G01X1937Y55120D03*
G01X6881Y47954D03*
G01X2881Y47954D03*
G01X8693Y40474D03*
G01X4693Y40474D03*
G01X6881Y32954D03*
G01X2881Y32954D03*
G01X13346Y55198D03*
G01X9345Y55198D03*
G01X20827Y55199D03*
G01X16827Y55199D03*
G01X28377Y55120D03*
G01X24377Y55120D03*
G01X36054Y55120D03*
G01X32054Y55120D03*
G01X43536Y55120D03*
G01X39536Y55120D03*
G01X51016Y55120D03*
G01X47016Y55120D03*
G01X58496Y55120D03*
G01X54496Y55120D03*
G01X65976Y55120D03*
G01X61976Y55120D03*
G01X73457Y55120D03*
G01X69457Y55120D03*
G01X80936Y55120D03*
G01X76936Y55120D03*
G01X88418Y55120D03*
G01X84418Y55120D03*
G01X95898Y55120D03*
G01X91898Y55120D03*
G01X103378Y55120D03*
G01X99378Y55120D03*
G01X15425Y47954D03*
G01X11425Y47954D03*
G01X22865Y47954D03*
G01X18865Y47954D03*
G01X30347Y47954D03*
G01X26347Y47954D03*
G01X37827Y47954D03*
G01X33827Y47954D03*
G01X45307Y47954D03*
G01X41307Y47954D03*
G01X52788Y47954D03*
G01X48788Y47954D03*
G01X60307Y47954D03*
G01X56307Y47954D03*
G01X67786Y47954D03*
G01X63786Y47954D03*
G01X75425Y47954D03*
G01X71425Y47954D03*
G01X82748Y47954D03*
G01X78748Y47954D03*
G01X90385Y47954D03*
G01X86385Y47954D03*
G01X19087Y40474D03*
G01X15087Y40474D03*
G01X26646Y40474D03*
G01X22646Y40474D03*
G01X34087Y40474D03*
G01X30087Y40474D03*
G01X41566Y40474D03*
G01X37566Y40474D03*
G01X49086Y40474D03*
G01X45086Y40474D03*
G01X56489Y40474D03*
G01X52489Y40474D03*
G01X64007Y40474D03*
G01X60008Y40474D03*
G01X71488Y40474D03*
G01X67488Y40474D03*
G01X79166Y40474D03*
G01X75166Y40474D03*
G01X87433Y40474D03*
G01X83433Y40474D03*
G01X95858Y40474D03*
G01X91858Y40474D03*
G01X103417Y40474D03*
G01X99417Y40474D03*
G01X16173Y32954D03*
G01X12173Y32954D03*
G01X25622Y32954D03*
G01X21622Y32954D03*
G01X53811Y32954D03*
G01X49811Y32954D03*
G01X80936Y32954D03*
G01X76936Y32954D03*
G01X88417Y32954D03*
G01X84417Y32954D03*
G01X95898Y32954D03*
G01X91898Y32954D03*
G01X103378Y32954D03*
G01X99378Y32954D03*
G01X100660Y47954D03*
G01X96660Y47954D03*
G54D14*
G01X45590Y38978D03*
G01X44574Y38978D03*
G01X43558Y38978D03*
G01X42541Y38978D03*
G01X41526Y38978D03*
G01X40510Y38978D03*
G01X39494Y38978D03*
G01X38478Y38978D03*
G01X37462Y38978D03*
G01X36446Y38978D03*
G01X35429Y38978D03*
G01X34414Y38978D03*
G01X34414Y37962D03*
G01X34414Y36946D03*
G01X34414Y35929D03*
G01X34414Y34914D03*
G01X34414Y33898D03*
G01X34414Y32882D03*
G01X35429Y32882D03*
G01X36446Y32882D03*
G01X37462Y32882D03*
G01X38478Y32882D03*
G01X39494Y32882D03*
G01X40510Y32882D03*
G01X41526Y32882D03*
G01X42541Y32882D03*
G01X43558Y32882D03*
G01X44574Y32882D03*
G01X45590Y32882D03*
G01X41526Y33898D03*
G01X41526Y37962D03*
G54D15*
G01X3751Y58848D03*
G54D17*
G01X2251Y59848D03*
G01X4751Y60848D03*
G54D19*
G01X1751Y58848D03*
G01X5751Y58848D03*
G54D15*
G01X11251Y58848D03*
G54D17*
G01X9751Y59848D03*
G01X12251Y60848D03*
G54D19*
G01X9251Y58848D03*
G01X13251Y58848D03*
G54D15*
G01X18752Y58848D03*
G54D17*
G01X17252Y59848D03*
G01X19752Y60848D03*
G54D19*
G01X16752Y58848D03*
G01X20752Y58848D03*
G54D15*
G01X26252Y58848D03*
G54D17*
G01X24752Y59848D03*
G01X27252Y60848D03*
G54D19*
G01X24252Y58848D03*
G01X28252Y58848D03*
G54D15*
G01X33752Y58848D03*
G54D17*
G01X32252Y59848D03*
G01X34752Y60848D03*
G54D19*
G01X31752Y58848D03*
G01X35752Y58848D03*
G54D15*
G01X41252Y58848D03*
G54D17*
G01X39752Y59848D03*
G01X42252Y60848D03*
G54D19*
G01X39252Y58848D03*
G01X43252Y58848D03*
G54D15*
G01X48752Y58848D03*
G54D17*
G01X47252Y59848D03*
G01X49752Y60848D03*
G54D19*
G01X46752Y58848D03*
G01X50752Y58848D03*
G54D15*
G01X56252Y58848D03*
G54D17*
G01X54752Y59848D03*
G01X57252Y60848D03*
G54D19*
G01X54252Y58848D03*
G01X58252Y58848D03*
G54D15*
G01X63752Y58848D03*
G54D17*
G01X62252Y59848D03*
G01X64752Y60848D03*
G54D19*
G01X61752Y58848D03*
G01X65752Y58848D03*
G54D15*
G01X71252Y58848D03*
G54D17*
G01X69752Y59848D03*
G01X72252Y60848D03*
G54D19*
G01X69252Y58848D03*
G01X73252Y58848D03*
G54D15*
G01X78752Y58848D03*
G54D17*
G01X77252Y59848D03*
G01X79752Y60848D03*
G54D19*
G01X76752Y58848D03*
G01X80752Y58848D03*
G54D15*
G01X86252Y58848D03*
G54D17*
G01X84752Y59848D03*
G01X87252Y60848D03*
G54D19*
G01X84252Y58848D03*
G01X88252Y58848D03*
G54D15*
G01X93752Y58848D03*
G54D17*
G01X92252Y59848D03*
G01X94752Y60848D03*
G54D19*
G01X91752Y58848D03*
G01X95752Y58848D03*
G54D15*
G01X101252Y58848D03*
G54D17*
G01X99752Y59848D03*
G01X102252Y60848D03*
G54D19*
G01X99252Y58848D03*
G01X103252Y58848D03*
G54D15*
G01X4688Y51348D03*
G54D17*
G01X3188Y52348D03*
G01X5688Y53348D03*
G54D19*
G01X2688Y51348D03*
G01X6688Y51348D03*
G54D15*
G01X6563Y43848D03*
G54D17*
G01X5063Y44848D03*
G01X7563Y45848D03*
G54D19*
G01X4563Y43848D03*
G01X8563Y43848D03*
G54D15*
G01X4688Y36348D03*
G54D17*
G01X3188Y37348D03*
G01X5688Y38348D03*
G54D19*
G01X2688Y36348D03*
G01X6688Y36348D03*
G54D15*
G01X13126Y51348D03*
G54D17*
G01X11626Y52348D03*
G01X14126Y53348D03*
G54D19*
G01X11126Y51348D03*
G01X15126Y51348D03*
G54D15*
G01X20626Y51348D03*
G54D17*
G01X19126Y52348D03*
G01X21626Y53348D03*
G54D19*
G01X18626Y51348D03*
G01X22626Y51348D03*
G54D15*
G01X28126Y51348D03*
G54D17*
G01X26626Y52348D03*
G01X29126Y53348D03*
G54D19*
G01X26126Y51348D03*
G01X30126Y51348D03*
G54D15*
G01X35626Y51348D03*
G54D17*
G01X34126Y52348D03*
G01X36626Y53348D03*
G54D19*
G01X33626Y51348D03*
G01X37626Y51348D03*
G54D15*
G01X43126Y51348D03*
G54D17*
G01X41626Y52348D03*
G01X44126Y53348D03*
G54D19*
G01X41126Y51348D03*
G01X45126Y51348D03*
G54D15*
G01X50626Y51348D03*
G54D17*
G01X49126Y52348D03*
G01X51626Y53348D03*
G54D19*
G01X48626Y51348D03*
G01X52626Y51348D03*
G54D15*
G01X58126Y51348D03*
G54D17*
G01X56626Y52348D03*
G01X59126Y53348D03*
G54D19*
G01X56126Y51348D03*
G01X60126Y51348D03*
G54D15*
G01X65626Y51348D03*
G54D17*
G01X64126Y52348D03*
G01X66626Y53348D03*
G54D19*
G01X63626Y51348D03*
G01X67626Y51348D03*
G54D15*
G01X73126Y51348D03*
G54D17*
G01X71626Y52348D03*
G01X74126Y53348D03*
G54D19*
G01X71126Y51348D03*
G01X75126Y51348D03*
G54D15*
G01X80626Y51348D03*
G54D17*
G01X79126Y52348D03*
G01X81626Y53348D03*
G54D19*
G01X78626Y51348D03*
G01X82626Y51348D03*
G54D15*
G01X88126Y51348D03*
G54D17*
G01X86626Y52348D03*
G01X89126Y53348D03*
G54D19*
G01X86126Y51348D03*
G01X90126Y51348D03*
G54D15*
G01X98436Y51348D03*
G54D17*
G01X96936Y52348D03*
G01X99436Y53348D03*
G54D19*
G01X96436Y51348D03*
G01X100436Y51348D03*
G54D15*
G01X16874Y43848D03*
G54D17*
G01X15374Y44848D03*
G01X17874Y45848D03*
G54D19*
G01X14874Y43848D03*
G01X18874Y43848D03*
G54D15*
G01X24374Y43848D03*
G54D17*
G01X22874Y44848D03*
G01X25374Y45848D03*
G54D19*
G01X22374Y43848D03*
G01X26374Y43848D03*
G54D15*
G01X31874Y43848D03*
G54D17*
G01X30374Y44848D03*
G01X32874Y45848D03*
G54D19*
G01X29874Y43848D03*
G01X33874Y43848D03*
G54D15*
G01X39374Y43848D03*
G54D17*
G01X37874Y44848D03*
G01X40374Y45848D03*
G54D19*
G01X37374Y43848D03*
G01X41374Y43848D03*
G54D15*
G01X46874Y43848D03*
G54D17*
G01X45374Y44848D03*
G01X47874Y45848D03*
G54D19*
G01X44874Y43848D03*
G01X48874Y43848D03*
G54D15*
G01X54374Y43848D03*
G54D17*
G01X52874Y44848D03*
G01X55374Y45848D03*
G54D19*
G01X52374Y43848D03*
G01X56374Y43848D03*
G54D15*
G01X61874Y43848D03*
G54D17*
G01X60374Y44848D03*
G01X62874Y45848D03*
G54D19*
G01X59874Y43848D03*
G01X63874Y43848D03*
G54D15*
G01X69374Y43848D03*
G54D17*
G01X67874Y44848D03*
G01X70374Y45848D03*
G54D19*
G01X67374Y43848D03*
G01X71374Y43848D03*
G54D15*
G01X76874Y43848D03*
G54D17*
G01X75374Y44848D03*
G01X77874Y45848D03*
G54D19*
G01X74874Y43848D03*
G01X78874Y43848D03*
G54D15*
G01X85310Y43848D03*
G54D17*
G01X83810Y44848D03*
G01X86310Y45848D03*
G54D19*
G01X83310Y43848D03*
G01X87310Y43848D03*
G54D15*
G01X93752Y43848D03*
G54D17*
G01X92252Y44848D03*
G01X94752Y45848D03*
G54D19*
G01X91752Y43848D03*
G01X95752Y43848D03*
G54D15*
G01X101252Y43848D03*
G54D17*
G01X99752Y44848D03*
G01X102252Y45848D03*
G54D19*
G01X99252Y43848D03*
G01X103252Y43848D03*
G54D15*
G01X14063Y36348D03*
G54D17*
G01X12563Y37348D03*
G01X15063Y38348D03*
G54D19*
G01X12063Y36348D03*
G01X16063Y36348D03*
G54D15*
G01X23437Y36348D03*
G54D17*
G01X21937Y37348D03*
G01X24437Y38348D03*
G54D19*
G01X21437Y36348D03*
G01X25437Y36348D03*
G54D15*
G01X51563Y36348D03*
G54D17*
G01X50063Y37348D03*
G01X52563Y38348D03*
G54D19*
G01X49563Y36348D03*
G01X53563Y36348D03*
G54D15*
G01X78752Y36348D03*
G54D17*
G01X77252Y37348D03*
G01X79752Y38348D03*
G54D19*
G01X76752Y36348D03*
G01X80752Y36348D03*
G54D15*
G01X86252Y36348D03*
G54D17*
G01X84752Y37348D03*
G01X87252Y38348D03*
G54D19*
G01X84252Y36348D03*
G01X88252Y36348D03*
G54D15*
G01X93752Y36348D03*
G54D17*
G01X92252Y37348D03*
G01X94752Y38348D03*
G54D19*
G01X91752Y36348D03*
G01X95752Y36348D03*
G54D15*
G01X101252Y36348D03*
G54D17*
G01X99752Y37348D03*
G01X102252Y38348D03*
G54D19*
G01X99252Y36348D03*
G01X103252Y36348D03*
G54D12*
G01X48110Y35474D03*
G01X48110Y36183D03*
G01X97047Y33466D03*
G01X48622Y41379D03*
G01X48898Y41655D03*
G01X48622Y41931D03*
G01X48898Y42246D03*
G01X50197Y42246D03*
G01X57677Y42246D03*
G01X65156Y42246D03*
G01X42716Y40907D03*
G01X46457Y46655D03*
G01X44094Y50002D03*
G01X37835Y57285D03*
G01X35236Y41183D03*
G01X28622Y41458D03*
G01X8070Y35041D03*
G01X17520Y34726D03*
G01X105118Y33821D03*
G01X104724Y33466D03*
G01X82086Y33466D03*
G01X89567Y33466D03*
G01X72638Y42246D03*
G01X48109Y35828D03*
G01X48110Y34765D03*
G01X48110Y35119D03*
G01X48110Y39372D03*
G01X47835Y34450D03*
G01X47559Y34175D03*
G01X47283Y33860D03*
G01X47008Y33584D03*
G01X47835Y39608D03*
G01X47558Y39372D03*
G01X47283Y39608D03*
G01X48465Y42521D03*

M00*
M02*